<svg xmlns="http://www.w3.org/2000/svg" width="400" height="400" viewBox="0 0 400 400"><rect width="100%" height="100%" fill="#2563eb"/><path fill="#FFFFFF" d="M105.215 187.555h14.17q5.22 0 9.09-1.3 3.88-1.31 6.46-3.74 2.57-2.43 3.84-5.92t1.27-7.79q0-4.09-1.27-7.41-1.27-3.31-3.81-5.64-2.54-2.32-6.41-3.56-3.88-1.23-9.17-1.23h-14.17zm-18.97-51.25h33.14q10.22 0 17.7 2.39 7.47 2.4 12.33 6.7 4.87 4.3 7.23 10.29 2.36 6 2.36 13.12 0 7.4-2.47 13.57-2.46 6.17-7.4 10.61-4.93 4.44-12.37 6.91t-17.38 2.47h-14.17v35.88h-18.97zm129.44 29.61h17.42v72.33h-10.65q-3.45 0-4.37-3.17l-1.2-5.78q-4.44 4.51-9.8 7.29-5.36 2.79-12.62 2.79-5.92 0-10.47-2.01-4.54-2.01-7.65-5.68-3.1-3.66-4.68-8.7-1.59-5.04-1.59-11.11v-45.96h17.41v45.96q0 6.63 3.07 10.26t9.2 3.63q4.51 0 8.46-2.01t7.47-5.53zm61.06 34.4q3.24 0 5.64-.88 2.39-.88 3.98-2.43t2.4-3.74q.81-2.18.81-4.79 0-5.36-3.21-8.5t-9.62-3.14q-6.42 0-9.63 3.14-3.2 3.14-3.2 8.5 0 2.53.81 4.72t2.39 3.77q1.59 1.59 4.02 2.47t5.61.88m19.67 41.17q0-2.11-1.27-3.45t-3.46-2.08q-2.18-.74-5.11-1.09-2.92-.36-6.2-.53-3.28-.18-6.77-.32t-6.8-.56q-2.89 1.62-4.69 3.8-1.8 2.19-1.8 5.08 0 1.9.95 3.56t3.03 2.85q2.08 1.2 5.4 1.87 3.31.67 8.1.67 4.87 0 8.39-.74 3.53-.74 5.82-2.04 2.29-1.31 3.35-3.1 1.06-1.8 1.06-3.92m-3.46-73.11h20.8v6.49q0 3.1-3.74 3.81l-6.48 1.2q1.48 3.73 1.48 8.17 0 5.36-2.15 9.7-2.15 4.33-5.96 7.36-3.81 3.04-8.99 4.69-5.18 1.66-11.17 1.66-2.12 0-4.09-.21-1.98-.21-3.88-.57-3.38 2.05-3.38 4.59 0 2.18 2 3.2 2.01 1.03 5.33 1.45 3.31.42 7.54.53 4.23.1 8.67.46 4.44.35 8.67 1.23t7.55 2.79q3.31 1.9 5.32 5.18t2.01 8.42q0 4.8-2.36 9.31t-6.84 8.04q-4.48 3.52-11 5.67t-14.84 2.15q-8.18 0-14.24-1.59-6.06-1.58-10.08-4.23-4.02-2.64-5.99-6.09-1.98-3.46-1.98-7.19 0-5.08 3.07-8.5t8.42-5.46q-2.89-1.48-4.58-3.95t-1.69-6.49q0-1.62.6-3.35.6-1.72 1.76-3.42 1.16-1.69 2.93-3.2 1.76-1.52 4.16-2.72-5.5-2.96-8.64-7.89-3.14-4.94-3.14-11.57 0-5.35 2.15-9.69t6-7.4q3.84-3.07 9.09-4.69t11.46-1.62q4.65 0 8.74.95t7.47 2.78"/></svg>