<svg xmlns="http://www.w3.org/2000/svg" width="400" height="400" viewBox="0 0 400 400"><rect width="100%" height="100%" fill="#2563eb"/><path fill="#FFFFFF" d="M109.325 201.665h25.99l-9.95-27.18q-.73-1.8-1.52-4.29t-1.59-5.37q-.73 2.88-1.52 5.4-.79 2.51-1.53 4.38zm20.73-50.85 32.09 81.7h-11.75q-1.98 0-3.22-.99t-1.86-2.46l-6.11-16.66h-33.84l-6.1 16.66q-.45 1.3-1.75 2.38-1.3 1.07-3.22 1.07h-11.87l32.15-81.7zm52.32 40.68v25.99q2.37 2.88 5.17 4.07t6.07 1.19q3.17 0 5.71-1.19t4.32-3.62 2.74-6.13.96-8.73q0-5.08-.82-8.61t-2.34-5.74q-1.53-2.2-3.7-3.22-2.18-1.01-4.95-1.01-4.35 0-7.4 1.83-3.05 1.84-5.76 5.17m-1.86-14.41 1.13 5.37q3.56-4.01 8.07-6.5 4.53-2.48 10.63-2.48 4.74 0 8.67 1.97 3.93 1.98 6.78 5.74t4.41 9.27q1.55 5.5 1.55 12.62 0 6.5-1.75 12.04-1.75 5.53-5 9.6t-7.85 6.36q-4.61 2.29-10.32 2.29-4.85 0-8.3-1.5t-6.16-4.15v23.73h-13.96v-76.9h8.54q2.71 0 3.56 2.54m64.41.96.84 6.56q2.71-5.2 6.44-8.17 3.73-2.96 8.82-2.96 4.01 0 6.44 1.75l-.91 10.45q-.28 1.02-.81 1.44-.54.43-1.45.43-.84 0-2.51-.29-1.67-.28-3.25-.28-2.31 0-4.12.68t-3.25 1.95-2.54 3.08q-1.11 1.81-2.07 4.12v35.71h-13.95v-57.97h8.19q2.15 0 3 .76.84.77 1.13 2.74m30.28-3.5h14.01v57.97h-14.01zm15.93-16.89q0 1.81-.73 3.39-.74 1.58-1.95 2.77-1.22 1.18-2.85 1.89-1.64.7-3.51.7-1.81 0-3.42-.7-1.61-.71-2.79-1.89-1.19-1.19-1.9-2.77-.7-1.58-.7-3.39 0-1.87.7-3.51.71-1.63 1.9-2.82 1.18-1.19 2.79-1.89 1.61-.71 3.42-.71 1.87 0 3.51.71 1.63.7 2.85 1.89 1.21 1.19 1.95 2.82.73 1.64.73 3.51m12.49-9.1h13.95v83.96h-13.95z"/></svg>