<svg xmlns="http://www.w3.org/2000/svg" width="400" height="400" viewBox="0 0 400 400"><rect width="100%" height="100%" fill="#2563eb"/><path fill="#FFFFFF" d="M111.495 194.32h18.24v22.23q-4.18 3.08-8.91 4.5-4.73 1.43-10.12 1.43-6.73 0-12.18-2.09-5.46-2.09-9.31-5.82-3.86-3.72-5.95-8.89t-2.09-11.28q0-6.2 2.01-11.37 2.02-5.16 5.72-8.89 3.71-3.72 8.99-5.77 5.28-2.06 11.86-2.06 3.34 0 6.25.54 2.9.53 5.39 1.46t4.54 2.26q2.06 1.33 3.77 2.93l-2.93 4.63q-.68 1.1-1.79 1.35-1.1.25-2.39-.55-1.25-.72-2.51-1.44-1.25-.73-2.79-1.26t-3.46-.87-4.43-.34q-4.06 0-7.35 1.36-3.29 1.37-5.6 3.92-2.32 2.54-3.58 6.12-1.25 3.57-1.25 7.98 0 4.71 1.35 8.41 1.35 3.71 3.8 6.27 2.45 2.57 5.91 3.92t7.71 1.35q3.04 0 5.44-.65 2.39-.65 4.67-1.75V202h-6.92q-.98 0-1.53-.56-.56-.55-.56-1.34zm47.24 17.48v-6.57q-4.07.19-6.84.7-2.78.51-4.45 1.31t-2.39 1.86q-.72 1.07-.72 2.32 0 2.47 1.46 3.53 1.46 1.07 3.82 1.07 2.89 0 5-1.05 2.1-1.04 4.12-3.17m-19.84-20.48-1.67-3q6.73-6.16 16.19-6.16 3.42 0 6.12 1.12 2.69 1.12 4.56 3.12 1.86 1.99 2.83 4.77.97 2.77.97 6.08v24.62h-4.26q-1.33 0-2.05-.4t-1.14-1.61l-.84-2.82q-1.48 1.33-2.89 2.34-1.4 1.01-2.92 1.69-1.52.69-3.25 1.05t-3.82.36q-2.47 0-4.56-.67-2.09-.66-3.61-1.99t-2.36-3.31q-.83-1.97-.83-4.6 0-1.48.49-2.94.5-1.46 1.62-2.79t2.9-2.51q1.79-1.18 4.39-2.05 2.61-.88 6.06-1.43 3.46-.55 7.91-.66v-2.28q0-3.92-1.67-5.8-1.68-1.88-4.83-1.88-2.28 0-3.78.53t-2.64 1.2l-2.07 1.2q-.93.53-2.07.53-.99 0-1.68-.52-.68-.51-1.1-1.19m37.93-25.92h9.38v56.47h-9.38zm18.88 0h9.39v56.47h-9.39zm26.18 32.49h17.71q0-1.82-.51-3.44-.51-1.61-1.54-2.83-1.03-1.21-2.6-1.92-1.58-.7-3.67-.7-4.07 0-6.4 2.32-2.34 2.32-2.99 6.57m23.94 5.66h-24.13q.23 3.01 1.07 5.19.83 2.19 2.2 3.61 1.37 1.43 3.25 2.13t4.16.7 3.94-.53q1.65-.53 2.88-1.18 1.24-.64 2.17-1.18.93-.53 1.8-.53 1.18 0 1.75.88l2.7 3.42q-1.56 1.82-3.5 3.06-1.93 1.23-4.04 1.97t-4.3 1.05q-2.18.3-4.23.3-4.07 0-7.57-1.35-3.49-1.35-6.08-3.99-2.58-2.64-4.06-6.53-1.48-3.9-1.48-9.03 0-3.99 1.29-7.51 1.29-3.51 3.7-6.11 2.42-2.61 5.89-4.13 3.48-1.52 7.85-1.52 3.69 0 6.8 1.18 3.12 1.18 5.36 3.44t3.52 5.55q1.27 3.29 1.27 7.5 0 2.13-.46 2.87-.45.74-1.75.74m17.52-18.31.57 4.41q1.83-3.5 4.33-5.49 2.51-2 5.93-2 2.7 0 4.33 1.18l-.6 7.03q-.19.68-.56.97-.36.28-.96.28-.57 0-1.7-.19-1.12-.19-2.18-.19-1.56 0-2.77.46-1.22.45-2.19 1.31-.97.85-1.71 2.07t-1.39 2.77v24.02h-9.38v-38.99h5.51q1.44 0 2.01.51.57.52.76 1.85m47.96-2.36h7.52l-21.24 49.71q-.42.98-1.08 1.5-.67.51-2.04.51h-6.99l7.3-15.66-15.77-36.06h8.24q1.11 0 1.73.53.63.54.93 1.22l8.29 20.22q.42 1.02.7 2.05.29 1.02.55 2.09.34-1.07.69-2.11.34-1.05.76-2.07l7.82-20.18q.31-.76 1.01-1.25.7-.5 1.58-.5"/></svg>