<svg xmlns="http://www.w3.org/2000/svg" width="400" height="400" viewBox="0 0 400 400"><rect width="100%" height="100%" fill="#2563eb"/><path fill="#FFFFFF" d="M97.455 225.32h28.61v10.99h-41.92v-71.58h13.31zm36.58-39.8h12.28v50.79h-12.28zm13.96-14.8q0 1.59-.64 2.97-.65 1.39-1.71 2.43t-2.5 1.66q-1.43.61-3.07.61-1.58 0-2.99-.61-1.41-.62-2.45-1.66t-1.66-2.43q-.62-1.38-.62-2.97 0-1.63.62-3.07.62-1.43 1.66-2.47t2.45-1.66 2.99-.62q1.64 0 3.07.62 1.44.62 2.5 1.66t1.71 2.47q.64 1.44.64 3.07m27.72 66.38q-6.63 0-10.17-3.74-3.54-3.73-3.54-10.32v-28.36h-5.2q-.99 0-1.68-.64-.69-.65-.69-1.93v-4.85l8.16-1.34 2.58-13.86q.25-.99.94-1.54.69-.54 1.78-.54h6.34v15.99h13.56v8.71h-13.56v27.52q0 2.38 1.16 3.71 1.16 1.34 3.19 1.34 1.14 0 1.91-.27t1.34-.57q.56-.3 1.01-.57t.89-.27q.55 0 .89.27.35.27.74.82l3.67 5.94q-2.68 2.22-6.14 3.36-3.47 1.14-7.18 1.14m36.83 0q-6.63 0-10.17-3.74-3.54-3.73-3.54-10.32v-28.36h-5.2q-.99 0-1.68-.64-.7-.65-.7-1.93v-4.85l8.17-1.34 2.58-13.86q.24-.99.94-1.54.69-.54 1.78-.54h6.33v15.99h13.57v8.71h-13.57v27.52q0 2.38 1.17 3.71 1.16 1.34 3.19 1.34 1.14 0 1.91-.27.76-.27 1.33-.57t1.02-.57q.44-.27.89-.27.54 0 .89.27t.74.82l3.67 5.94q-2.68 2.22-6.14 3.36-3.47 1.14-7.18 1.14m29.55-32.02h23.07q0-2.38-.67-4.48-.67-2.11-2-3.69-1.34-1.59-3.4-2.5-2.05-.92-4.77-.92-5.3 0-8.34 3.02-3.05 3.02-3.89 8.57m31.19 7.37h-31.44q.3 3.91 1.39 6.76 1.09 2.84 2.87 4.7t4.23 2.77q2.45.92 5.42.92t5.13-.7q2.15-.69 3.76-1.53t2.82-1.53q1.21-.7 2.35-.7 1.54 0 2.28 1.14l3.51 4.46q-2.03 2.37-4.55 3.98-2.53 1.61-5.27 2.58-2.75.96-5.6 1.36-2.84.39-5.52.39-5.29 0-9.85-1.75-4.55-1.76-7.92-5.2-3.36-3.44-5.29-8.52-1.93-5.07-1.93-11.75 0-5.2 1.68-9.78t4.83-7.97q3.14-3.39 7.67-5.37t10.22-1.98q4.8 0 8.86 1.54 4.06 1.53 6.98 4.48 2.92 2.94 4.58 7.22t1.66 9.78q0 2.77-.6 3.74-.59.96-2.27.96m22.82-23.86.74 5.74q2.37-4.55 5.64-7.15t7.72-2.6q3.52 0 5.65 1.54l-.8 9.15q-.24.9-.71 1.27t-1.27.37q-.74 0-2.2-.25t-2.84-.25q-2.03 0-3.62.6-1.58.59-2.84 1.7-1.27 1.12-2.23 2.7-.97 1.59-1.81 3.62v31.28h-12.23v-50.79h7.18q1.88 0 2.63.67.74.67.99 2.4"/></svg>