<svg xmlns="http://www.w3.org/2000/svg" width="400" height="400" viewBox="0 0 400 400"><rect width="100%" height="100%" fill="#2563eb"/><path fill="#FFFFFF" d="M93.9 193.05h8.54q3.15 0 5.48-.78 2.34-.79 3.89-2.26 1.55-1.46 2.32-3.57.76-2.1.76-4.69 0-2.47-.76-4.47-.77-1.99-2.3-3.4-1.53-1.4-3.86-2.14-2.34-.75-5.53-.75H93.9zm-11.43-30.9h19.97q6.16 0 10.67 1.45 4.5 1.44 7.44 4.04 2.93 2.59 4.35 6.2 1.43 3.61 1.43 7.91 0 4.46-1.49 8.18t-4.46 6.39q-2.98 2.68-7.46 4.17-4.49 1.49-10.48 1.49H93.9v21.63H82.47zM160.5 180h10.49v43.61h-6.41q-2.09 0-2.64-1.91l-.72-3.49q-2.68 2.72-5.91 4.4t-7.61 1.68q-3.57 0-6.31-1.21t-4.61-3.42-2.83-5.25q-.95-3.04-.95-6.7V180h10.5v27.71q0 4 1.84 6.19 1.85 2.19 5.55 2.19 2.72 0 5.1-1.21 2.38-1.22 4.51-3.34zm31.36 12.75v19.55q1.79 2.17 3.89 3.06 2.1.9 4.57.9 2.38 0 4.29-.9 1.91-.89 3.25-2.72 1.34-1.82 2.06-4.61.73-2.78.73-6.56 0-3.83-.62-6.48-.62-2.66-1.76-4.32-1.15-1.66-2.79-2.42-1.63-.77-3.72-.77-3.27 0-5.56 1.39-2.3 1.38-4.34 3.88m-1.4-10.83.85 4.03q2.68-3.01 6.08-4.88t7.99-1.87q3.57 0 6.52 1.48 2.95 1.49 5.1 4.32 2.15 2.82 3.31 6.97 1.17 4.14 1.17 9.5 0 4.88-1.31 9.05-1.32 4.16-3.77 7.22-2.44 3.06-5.9 4.79-3.47 1.72-7.76 1.72-3.65 0-6.25-1.13-2.59-1.13-4.63-3.12v17.85h-10.5V180h6.42q2.04 0 2.68 1.92m49.68 10.83v19.55q1.79 2.17 3.89 3.06 2.1.9 4.57.9 2.38 0 4.29-.9 1.91-.89 3.25-2.72 1.34-1.82 2.06-4.61.73-2.78.73-6.56 0-3.83-.62-6.48-.62-2.66-1.76-4.32-1.15-1.66-2.79-2.42-1.63-.77-3.72-.77-3.27 0-5.56 1.39-2.3 1.38-4.34 3.88m-1.4-10.83.85 4.03q2.68-3.01 6.08-4.88t7.99-1.87q3.57 0 6.52 1.48 2.95 1.49 5.1 4.32 2.15 2.82 3.32 6.97 1.16 4.14 1.16 9.5 0 4.88-1.31 9.05-1.32 4.16-3.77 7.22-2.44 3.06-5.9 4.79-3.47 1.72-7.76 1.72-3.65 0-6.25-1.13-2.59-1.13-4.63-3.12v17.85h-10.5V180h6.42q2.04 0 2.68 1.92m70.38-1.92h8.41l-23.75 55.6q-.47 1.1-1.22 1.67-.74.58-2.27.58h-7.82l8.16-17.51L272.99 180h9.23q1.23 0 1.93.6.7.59 1.04 1.36l9.27 22.61q.46 1.15.78 2.29.32 1.15.62 2.34.38-1.19.76-2.36.39-1.17.85-2.31l8.76-22.57q.34-.85 1.12-1.4.79-.56 1.77-.56"/></svg>